<mxfile host="app.diagrams.net" modified="2021-10-18T12:55:12.629Z" agent="5.0 (Macintosh; Intel Mac OS X 10_15_7) AppleWebKit/537.36 (KHTML, like Gecko) Chrome/86.0.4240.193 Safari/537.36" etag="cj34dxtR_MIJkf7ZkV12" version="15.4.1" type="github">
  <diagram id="W-ZPDzIPwxf3K2F3-CLV" name="Page-1">
    <mxGraphModel dx="946" dy="536" grid="1" gridSize="10" guides="1" tooltips="1" connect="1" arrows="1" fold="1" page="1" pageScale="1" pageWidth="827" pageHeight="1169" math="0" shadow="0">
      <root>
        <mxCell id="0" />
        <mxCell id="1" parent="0" />
        <mxCell id="grg9WksZpx3kfPsSyK7h-10" style="rounded=0;orthogonalLoop=1;jettySize=auto;html=1;exitX=1;exitY=1;exitDx=0;exitDy=0;entryX=0;entryY=0;entryDx=0;entryDy=0;" edge="1" parent="1" source="grg9WksZpx3kfPsSyK7h-1" target="grg9WksZpx3kfPsSyK7h-7">
          <mxGeometry relative="1" as="geometry" />
        </mxCell>
        <mxCell id="grg9WksZpx3kfPsSyK7h-14" value="FIN=1 seq=u" style="edgeLabel;html=1;align=center;verticalAlign=middle;resizable=0;points=[];" vertex="1" connectable="0" parent="grg9WksZpx3kfPsSyK7h-10">
          <mxGeometry x="-0.1174" y="3" relative="1" as="geometry">
            <mxPoint as="offset" />
          </mxGeometry>
        </mxCell>
        <mxCell id="grg9WksZpx3kfPsSyK7h-1" value="&lt;span&gt;ESTABLISHED&lt;/span&gt;" style="rounded=0;whiteSpace=wrap;html=1;fillColor=#ffe6cc;strokeColor=#d79b00;" vertex="1" parent="1">
          <mxGeometry x="120" y="150" width="120" height="60" as="geometry" />
        </mxCell>
        <mxCell id="grg9WksZpx3kfPsSyK7h-13" style="edgeStyle=none;rounded=0;orthogonalLoop=1;jettySize=auto;html=1;exitX=1;exitY=1;exitDx=0;exitDy=0;entryX=0;entryY=0;entryDx=0;entryDy=0;" edge="1" parent="1" source="grg9WksZpx3kfPsSyK7h-2" target="grg9WksZpx3kfPsSyK7h-9">
          <mxGeometry relative="1" as="geometry" />
        </mxCell>
        <mxCell id="grg9WksZpx3kfPsSyK7h-17" value="ACK=1 seq=u+1 ack=w+1" style="edgeLabel;html=1;align=center;verticalAlign=middle;resizable=0;points=[];" vertex="1" connectable="0" parent="grg9WksZpx3kfPsSyK7h-13">
          <mxGeometry x="-0.0707" relative="1" as="geometry">
            <mxPoint as="offset" />
          </mxGeometry>
        </mxCell>
        <mxCell id="grg9WksZpx3kfPsSyK7h-2" value="&lt;span&gt;FIN_WAIT_2&lt;/span&gt;" style="rounded=0;whiteSpace=wrap;html=1;fillColor=#ffe6cc;strokeColor=#d79b00;" vertex="1" parent="1">
          <mxGeometry x="120" y="330" width="120" height="60" as="geometry" />
        </mxCell>
        <mxCell id="grg9WksZpx3kfPsSyK7h-3" value="FIN_WAIT_1" style="rounded=0;whiteSpace=wrap;html=1;fillColor=#ffe6cc;strokeColor=#d79b00;" vertex="1" parent="1">
          <mxGeometry x="120" y="210" width="120" height="120" as="geometry" />
        </mxCell>
        <mxCell id="grg9WksZpx3kfPsSyK7h-4" value="CLOSED" style="rounded=0;whiteSpace=wrap;html=1;fillColor=#ffe6cc;strokeColor=#d79b00;" vertex="1" parent="1">
          <mxGeometry x="120" y="510" width="120" height="60" as="geometry" />
        </mxCell>
        <mxCell id="grg9WksZpx3kfPsSyK7h-5" value="TIME_WAIT&lt;br&gt;(等待2MSL)" style="rounded=0;whiteSpace=wrap;html=1;fillColor=#ffe6cc;strokeColor=#d79b00;" vertex="1" parent="1">
          <mxGeometry x="120" y="390" width="120" height="120" as="geometry" />
        </mxCell>
        <mxCell id="grg9WksZpx3kfPsSyK7h-11" style="edgeStyle=none;rounded=0;orthogonalLoop=1;jettySize=auto;html=1;exitX=0;exitY=1;exitDx=0;exitDy=0;entryX=1;entryY=0;entryDx=0;entryDy=0;" edge="1" parent="1" source="grg9WksZpx3kfPsSyK7h-6" target="grg9WksZpx3kfPsSyK7h-2">
          <mxGeometry relative="1" as="geometry" />
        </mxCell>
        <mxCell id="grg9WksZpx3kfPsSyK7h-15" value="ACK=1 ack=u+1 seq=v" style="edgeLabel;html=1;align=center;verticalAlign=middle;resizable=0;points=[];" vertex="1" connectable="0" parent="grg9WksZpx3kfPsSyK7h-11">
          <mxGeometry x="0.1156" y="-2" relative="1" as="geometry">
            <mxPoint y="1" as="offset" />
          </mxGeometry>
        </mxCell>
        <mxCell id="grg9WksZpx3kfPsSyK7h-6" value="&lt;span&gt;ESTABLISHED&lt;/span&gt;" style="rounded=0;whiteSpace=wrap;html=1;fillColor=#dae8fc;strokeColor=#6c8ebf;" vertex="1" parent="1">
          <mxGeometry x="440" y="150" width="120" height="120" as="geometry" />
        </mxCell>
        <mxCell id="grg9WksZpx3kfPsSyK7h-12" style="edgeStyle=none;rounded=0;orthogonalLoop=1;jettySize=auto;html=1;exitX=0;exitY=1;exitDx=0;exitDy=0;entryX=1;entryY=0;entryDx=0;entryDy=0;" edge="1" parent="1" source="grg9WksZpx3kfPsSyK7h-7" target="grg9WksZpx3kfPsSyK7h-5">
          <mxGeometry relative="1" as="geometry" />
        </mxCell>
        <mxCell id="grg9WksZpx3kfPsSyK7h-16" value="FIN=1 ACK=1 seq=w ack=u+1" style="edgeLabel;html=1;align=center;verticalAlign=middle;resizable=0;points=[];" vertex="1" connectable="0" parent="grg9WksZpx3kfPsSyK7h-12">
          <mxGeometry x="0.055" y="-2" relative="1" as="geometry">
            <mxPoint as="offset" />
          </mxGeometry>
        </mxCell>
        <mxCell id="grg9WksZpx3kfPsSyK7h-7" value="CLOSED_WAIT" style="rounded=0;whiteSpace=wrap;html=1;fillColor=#dae8fc;strokeColor=#6c8ebf;" vertex="1" parent="1">
          <mxGeometry x="440" y="270" width="120" height="60" as="geometry" />
        </mxCell>
        <mxCell id="grg9WksZpx3kfPsSyK7h-8" value="LAST_ACK" style="rounded=0;whiteSpace=wrap;html=1;fillColor=#dae8fc;strokeColor=#6c8ebf;" vertex="1" parent="1">
          <mxGeometry x="440" y="330" width="120" height="140" as="geometry" />
        </mxCell>
        <mxCell id="grg9WksZpx3kfPsSyK7h-9" value="&lt;span&gt;CLOSED&lt;/span&gt;" style="rounded=0;whiteSpace=wrap;html=1;fillColor=#dae8fc;strokeColor=#6c8ebf;" vertex="1" parent="1">
          <mxGeometry x="440" y="470" width="120" height="100" as="geometry" />
        </mxCell>
      </root>
    </mxGraphModel>
  </diagram>
</mxfile>
